<mxfile host="Electron" agent="Mozilla/5.0 (Windows NT 10.0; Win64; x64) AppleWebKit/537.36 (KHTML, like Gecko) draw.io/26.2.2 Chrome/134.0.6998.178 Electron/35.1.2 Safari/537.36" version="26.2.2">
  <diagram name="Page-1" id="vpuKJuu7O6dKnJtrEHak">
    <mxGraphModel dx="1860" dy="848" grid="1" gridSize="10" guides="1" tooltips="1" connect="1" arrows="1" fold="1" page="1" pageScale="1" pageWidth="570" pageHeight="940" math="0" shadow="0">
      <root>
        <mxCell id="0" />
        <mxCell id="1" parent="0" />
        <mxCell id="xKpivIKKUuxBDInxmXFq-1" value="&lt;p style=&quot;margin:0px;margin-top:4px;text-align:center;&quot;&gt;&lt;i&gt;&amp;lt;&amp;lt;Abstract&amp;gt;&amp;gt;&lt;/i&gt;&lt;br&gt;&lt;b&gt;+ Controller&lt;/b&gt;&lt;/p&gt;&lt;hr size=&quot;1&quot; style=&quot;border-style:solid;&quot;&gt;&lt;p style=&quot;margin:0px;margin-left:4px;&quot;&gt;&lt;br&gt;&lt;/p&gt;&lt;hr size=&quot;1&quot; style=&quot;border-style:solid;&quot;&gt;&lt;p style=&quot;margin:0px;margin-left:4px;&quot;&gt;&lt;font style=&quot;color: rgb(0, 204, 0);&quot;&gt;&amp;nbsp;+ TraitEvent()&lt;/font&gt;&lt;/p&gt;" style="verticalAlign=top;align=left;overflow=fill;html=1;whiteSpace=wrap;fillColor=none;" vertex="1" parent="1">
          <mxGeometry x="520" y="115" width="190" height="90" as="geometry" />
        </mxCell>
        <mxCell id="xKpivIKKUuxBDInxmXFq-2" value="+ AddController" style="swimlane;fontStyle=1;align=center;verticalAlign=top;childLayout=stackLayout;horizontal=1;startSize=26;horizontalStack=0;resizeParent=1;resizeParentMax=0;resizeLast=0;collapsible=1;marginBottom=0;whiteSpace=wrap;html=1;fillColor=none;" vertex="1" parent="1">
          <mxGeometry x="420" y="350" width="160" height="80" as="geometry" />
        </mxCell>
        <mxCell id="xKpivIKKUuxBDInxmXFq-3" value="" style="line;strokeWidth=1;fillColor=none;align=left;verticalAlign=middle;spacingTop=-1;spacingLeft=3;spacingRight=3;rotatable=0;labelPosition=right;points=[];portConstraint=eastwest;strokeColor=inherit;" vertex="1" parent="xKpivIKKUuxBDInxmXFq-2">
          <mxGeometry y="26" width="160" height="8" as="geometry" />
        </mxCell>
        <mxCell id="xKpivIKKUuxBDInxmXFq-4" value="&lt;font style=&quot;color: rgb(0, 204, 0);&quot;&gt;+ TraitEvent()&lt;/font&gt;&lt;div&gt;&lt;font style=&quot;color: rgb(0, 204, 0);&quot;&gt;+ ModifyModel()&lt;/font&gt;&lt;/div&gt;" style="text;strokeColor=none;fillColor=none;align=left;verticalAlign=top;spacingLeft=4;spacingRight=4;overflow=hidden;rotatable=0;points=[[0,0.5],[1,0.5]];portConstraint=eastwest;whiteSpace=wrap;html=1;" vertex="1" parent="xKpivIKKUuxBDInxmXFq-2">
          <mxGeometry y="34" width="160" height="46" as="geometry" />
        </mxCell>
        <mxCell id="xKpivIKKUuxBDInxmXFq-5" value="+ ReduceController" style="swimlane;fontStyle=1;align=center;verticalAlign=top;childLayout=stackLayout;horizontal=1;startSize=26;horizontalStack=0;resizeParent=1;resizeParentMax=0;resizeLast=0;collapsible=1;marginBottom=0;whiteSpace=wrap;html=1;fillColor=none;" vertex="1" parent="1">
          <mxGeometry x="680" y="350" width="160" height="80" as="geometry" />
        </mxCell>
        <mxCell id="xKpivIKKUuxBDInxmXFq-6" value="" style="line;strokeWidth=1;fillColor=none;align=left;verticalAlign=middle;spacingTop=-1;spacingLeft=3;spacingRight=3;rotatable=0;labelPosition=right;points=[];portConstraint=eastwest;strokeColor=inherit;" vertex="1" parent="xKpivIKKUuxBDInxmXFq-5">
          <mxGeometry y="26" width="160" height="8" as="geometry" />
        </mxCell>
        <mxCell id="xKpivIKKUuxBDInxmXFq-7" value="&lt;font style=&quot;color: rgb(0, 204, 0);&quot;&gt;+ TraitEvent()&lt;/font&gt;&lt;div&gt;&lt;font style=&quot;color: rgb(0, 204, 0);&quot;&gt;+ ModifyModel()&lt;/font&gt;&lt;/div&gt;" style="text;strokeColor=none;fillColor=none;align=left;verticalAlign=top;spacingLeft=4;spacingRight=4;overflow=hidden;rotatable=0;points=[[0,0.5],[1,0.5]];portConstraint=eastwest;whiteSpace=wrap;html=1;" vertex="1" parent="xKpivIKKUuxBDInxmXFq-5">
          <mxGeometry y="34" width="160" height="46" as="geometry" />
        </mxCell>
        <mxCell id="xKpivIKKUuxBDInxmXFq-8" value="" style="endArrow=block;endFill=0;endSize=16;html=1;rounded=0;exitX=0.5;exitY=0;exitDx=0;exitDy=0;entryX=0.25;entryY=1;entryDx=0;entryDy=0;" edge="1" parent="1" source="xKpivIKKUuxBDInxmXFq-2" target="xKpivIKKUuxBDInxmXFq-1">
          <mxGeometry width="160" relative="1" as="geometry">
            <mxPoint x="310" y="260" as="sourcePoint" />
            <mxPoint x="470" y="260" as="targetPoint" />
          </mxGeometry>
        </mxCell>
        <mxCell id="xKpivIKKUuxBDInxmXFq-9" value="" style="endArrow=block;endFill=0;endSize=16;html=1;rounded=0;exitX=0.5;exitY=0;exitDx=0;exitDy=0;entryX=0.75;entryY=1;entryDx=0;entryDy=0;" edge="1" parent="1" source="xKpivIKKUuxBDInxmXFq-5" target="xKpivIKKUuxBDInxmXFq-1">
          <mxGeometry width="160" relative="1" as="geometry">
            <mxPoint x="573" y="290" as="sourcePoint" />
            <mxPoint x="510" y="200" as="targetPoint" />
          </mxGeometry>
        </mxCell>
        <mxCell id="xKpivIKKUuxBDInxmXFq-10" value="&lt;p style=&quot;margin:0px;margin-top:4px;text-align:center;&quot;&gt;&lt;font style=&quot;color: rgb(0, 0, 0);&quot;&gt;&lt;i style=&quot;&quot;&gt;&amp;lt;&amp;lt;Abstract&amp;gt;&amp;gt;&lt;/i&gt;&lt;br&gt;&lt;b style=&quot;&quot;&gt;+ View&lt;/b&gt;&lt;/font&gt;&lt;/p&gt;&lt;hr size=&quot;1&quot; style=&quot;border-style:solid;&quot;&gt;&lt;p style=&quot;margin:0px;margin-left:4px;&quot;&gt;&lt;font style=&quot;color: rgb(0, 204, 0);&quot;&gt;&amp;nbsp;&lt;font style=&quot;color: rgb(0, 204, 0);&quot;&gt;- con : Controller&lt;/font&gt;&lt;/font&gt;&lt;/p&gt;&lt;hr size=&quot;1&quot; style=&quot;border-style:solid;&quot;&gt;&lt;p style=&quot;margin:0px;margin-left:4px;&quot;&gt;&lt;font style=&quot;color: rgb(0, 204, 0);&quot;&gt;&amp;nbsp;+ HandleEvent()&lt;/font&gt;&lt;/p&gt;&lt;p style=&quot;margin:0px;margin-left:4px;&quot;&gt;&lt;font style=&quot;color: rgb(255, 0, 0);&quot;&gt;&amp;nbsp;+ updateView()&lt;/font&gt;&lt;/p&gt;" style="verticalAlign=top;align=left;overflow=fill;html=1;whiteSpace=wrap;fillColor=none;" vertex="1" parent="1">
          <mxGeometry x="-20" y="100" width="190" height="110" as="geometry" />
        </mxCell>
        <mxCell id="xKpivIKKUuxBDInxmXFq-11" value="+ ViewC" style="swimlane;fontStyle=1;align=center;verticalAlign=top;childLayout=stackLayout;horizontal=1;startSize=26;horizontalStack=0;resizeParent=1;resizeParentMax=0;resizeLast=0;collapsible=1;marginBottom=0;whiteSpace=wrap;html=1;fillColor=none;" vertex="1" parent="1">
          <mxGeometry x="-150" y="350" width="110" height="80" as="geometry" />
        </mxCell>
        <mxCell id="xKpivIKKUuxBDInxmXFq-12" value="" style="line;strokeWidth=1;fillColor=none;align=left;verticalAlign=middle;spacingTop=-1;spacingLeft=3;spacingRight=3;rotatable=0;labelPosition=right;points=[];portConstraint=eastwest;strokeColor=inherit;" vertex="1" parent="xKpivIKKUuxBDInxmXFq-11">
          <mxGeometry y="26" width="110" height="8" as="geometry" />
        </mxCell>
        <mxCell id="xKpivIKKUuxBDInxmXFq-13" value="&lt;font style=&quot;color: rgb(255, 0, 0);&quot;&gt;+ updateView()&lt;/font&gt;&lt;div&gt;&lt;font color=&quot;#ff0000&quot;&gt;+ readTemp()&lt;/font&gt;&lt;/div&gt;" style="text;strokeColor=none;fillColor=none;align=left;verticalAlign=top;spacingLeft=4;spacingRight=4;overflow=hidden;rotatable=0;points=[[0,0.5],[1,0.5]];portConstraint=eastwest;whiteSpace=wrap;html=1;" vertex="1" parent="xKpivIKKUuxBDInxmXFq-11">
          <mxGeometry y="34" width="110" height="46" as="geometry" />
        </mxCell>
        <mxCell id="xKpivIKKUuxBDInxmXFq-18" value="&lt;p style=&quot;margin:0px;margin-top:4px;text-align:center;&quot;&gt;&lt;i&gt;&amp;lt;&amp;lt;Abstract&amp;gt;&amp;gt;&lt;/i&gt;&lt;br&gt;&lt;b&gt;+ Model&lt;/b&gt;&lt;/p&gt;&lt;hr size=&quot;1&quot; style=&quot;border-style:solid;&quot;&gt;&lt;p style=&quot;margin:0px;margin-left:4px;&quot;&gt;&lt;font style=&quot;color: rgb(255, 0, 0);&quot;&gt;&amp;nbsp;- obsList : List&amp;lt;View&amp;gt;&lt;/font&gt;&lt;/p&gt;&lt;hr size=&quot;1&quot; style=&quot;border-style:solid;&quot;&gt;&lt;div&gt;&amp;nbsp; &lt;font style=&quot;color: rgb(255, 0, 0);&quot;&gt;+ addView(view)&lt;/font&gt;&lt;/div&gt;&lt;div&gt;&lt;font style=&quot;color: rgb(255, 0, 0);&quot;&gt;&amp;nbsp; + deleteView(view)&lt;/font&gt;&lt;/div&gt;&lt;p style=&quot;margin:0px;margin-left:4px;&quot;&gt;&lt;font style=&quot;color: rgb(255, 0, 0);&quot;&gt;&amp;nbsp;+ notifyView()&lt;/font&gt;&lt;/p&gt;" style="verticalAlign=top;align=left;overflow=fill;html=1;whiteSpace=wrap;fillColor=none;" vertex="1" parent="1">
          <mxGeometry x="-430" y="100" width="190" height="120" as="geometry" />
        </mxCell>
        <mxCell id="xKpivIKKUuxBDInxmXFq-19" value="&lt;div style=&quot;text-align: start;&quot;&gt;&lt;span style=&quot;background-color: transparent; color: light-dark(rgb(0, 0, 0), rgb(255, 255, 255));&quot;&gt;+concreteModel&lt;/span&gt;&lt;/div&gt;" style="swimlane;fontStyle=1;align=center;verticalAlign=top;childLayout=stackLayout;horizontal=1;startSize=26;horizontalStack=0;resizeParent=1;resizeParentMax=0;resizeLast=0;collapsible=1;marginBottom=0;whiteSpace=wrap;html=1;fillColor=none;" vertex="1" parent="1">
          <mxGeometry x="-415" y="320" width="160" height="110" as="geometry" />
        </mxCell>
        <mxCell id="xKpivIKKUuxBDInxmXFq-20" value="&lt;font style=&quot;color: rgb(255, 0, 0);&quot;&gt;- temp: float&lt;/font&gt;" style="text;strokeColor=none;fillColor=none;align=left;verticalAlign=top;spacingLeft=4;spacingRight=4;overflow=hidden;rotatable=0;points=[[0,0.5],[1,0.5]];portConstraint=eastwest;whiteSpace=wrap;html=1;" vertex="1" parent="xKpivIKKUuxBDInxmXFq-19">
          <mxGeometry y="26" width="160" height="26" as="geometry" />
        </mxCell>
        <mxCell id="xKpivIKKUuxBDInxmXFq-21" value="" style="line;strokeWidth=1;fillColor=none;align=left;verticalAlign=middle;spacingTop=-1;spacingLeft=3;spacingRight=3;rotatable=0;labelPosition=right;points=[];portConstraint=eastwest;strokeColor=inherit;" vertex="1" parent="xKpivIKKUuxBDInxmXFq-19">
          <mxGeometry y="52" width="160" height="8" as="geometry" />
        </mxCell>
        <mxCell id="xKpivIKKUuxBDInxmXFq-22" value="&lt;div&gt;&lt;font style=&quot;color: rgb(255, 0, 0);&quot;&gt;+ convertTemp()&lt;/font&gt;&lt;/div&gt;&lt;font style=&quot;color: rgb(255, 0, 0);&quot;&gt;+ updateTemp()&lt;/font&gt;&lt;div&gt;&lt;font style=&quot;color: rgb(255, 0, 0);&quot;&gt;+ getState()&lt;/font&gt;&lt;/div&gt;" style="text;strokeColor=none;fillColor=none;align=left;verticalAlign=top;spacingLeft=4;spacingRight=4;overflow=hidden;rotatable=0;points=[[0,0.5],[1,0.5]];portConstraint=eastwest;whiteSpace=wrap;html=1;" vertex="1" parent="xKpivIKKUuxBDInxmXFq-19">
          <mxGeometry y="60" width="160" height="50" as="geometry" />
        </mxCell>
        <mxCell id="xKpivIKKUuxBDInxmXFq-23" value="" style="endArrow=block;endFill=0;endSize=16;html=1;rounded=0;exitX=0.5;exitY=0;exitDx=0;exitDy=0;entryX=0.25;entryY=1;entryDx=0;entryDy=0;" edge="1" parent="1" source="xKpivIKKUuxBDInxmXFq-11" target="xKpivIKKUuxBDInxmXFq-10">
          <mxGeometry width="160" relative="1" as="geometry">
            <mxPoint x="-78" y="330" as="sourcePoint" />
            <mxPoint x="10" y="255" as="targetPoint" />
          </mxGeometry>
        </mxCell>
        <mxCell id="xKpivIKKUuxBDInxmXFq-25" value="" style="endArrow=block;endFill=0;endSize=16;html=1;rounded=0;exitX=0.5;exitY=0;exitDx=0;exitDy=0;entryX=0.5;entryY=1;entryDx=0;entryDy=0;" edge="1" parent="1" source="xKpivIKKUuxBDInxmXFq-19" target="xKpivIKKUuxBDInxmXFq-18">
          <mxGeometry width="160" relative="1" as="geometry">
            <mxPoint x="-60" y="360" as="sourcePoint" />
            <mxPoint x="38" y="220" as="targetPoint" />
          </mxGeometry>
        </mxCell>
        <mxCell id="xKpivIKKUuxBDInxmXFq-26" value="" style="endArrow=open;endFill=1;endSize=12;html=1;rounded=0;" edge="1" parent="1">
          <mxGeometry width="160" relative="1" as="geometry">
            <mxPoint x="-240" y="170" as="sourcePoint" />
            <mxPoint x="-20" y="169" as="targetPoint" />
          </mxGeometry>
        </mxCell>
        <mxCell id="xKpivIKKUuxBDInxmXFq-27" value="" style="endArrow=diamondThin;endFill=0;endSize=24;html=1;rounded=0;entryX=0.999;entryY=0.613;entryDx=0;entryDy=0;entryPerimeter=0;strokeColor=#00CC00;" edge="1" parent="1" target="xKpivIKKUuxBDInxmXFq-10">
          <mxGeometry width="160" relative="1" as="geometry">
            <mxPoint x="520" y="169" as="sourcePoint" />
            <mxPoint x="38" y="220" as="targetPoint" />
          </mxGeometry>
        </mxCell>
        <mxCell id="xKpivIKKUuxBDInxmXFq-29" value="" style="endArrow=open;endFill=1;endSize=12;html=1;rounded=0;strokeColor=#FF0000;" edge="1" parent="1">
          <mxGeometry width="160" relative="1" as="geometry">
            <mxPoint x="-150" y="386" as="sourcePoint" />
            <mxPoint x="-254" y="386" as="targetPoint" />
          </mxGeometry>
        </mxCell>
        <mxCell id="xKpivIKKUuxBDInxmXFq-30" value="" style="endArrow=open;endFill=1;endSize=12;html=1;rounded=0;entryX=0.593;entryY=1.014;entryDx=0;entryDy=0;entryPerimeter=0;strokeColor=#FF0000;exitX=0.454;exitY=1.007;exitDx=0;exitDy=0;exitPerimeter=0;" edge="1" parent="1" source="xKpivIKKUuxBDInxmXFq-48" target="xKpivIKKUuxBDInxmXFq-22">
          <mxGeometry width="160" relative="1" as="geometry">
            <mxPoint x="300" y="470" as="sourcePoint" />
            <mxPoint x="20" y="469" as="targetPoint" />
            <Array as="points">
              <mxPoint x="240" y="480" />
              <mxPoint x="-100" y="480" />
              <mxPoint x="-320" y="480" />
            </Array>
          </mxGeometry>
        </mxCell>
        <mxCell id="xKpivIKKUuxBDInxmXFq-31" value="" style="endArrow=open;endFill=1;endSize=12;html=1;rounded=0;entryX=0.474;entryY=1.019;entryDx=0;entryDy=0;entryPerimeter=0;exitX=0.499;exitY=1.011;exitDx=0;exitDy=0;exitPerimeter=0;" edge="1" parent="1" source="xKpivIKKUuxBDInxmXFq-4" target="xKpivIKKUuxBDInxmXFq-22">
          <mxGeometry width="160" relative="1" as="geometry">
            <mxPoint x="500" y="441" as="sourcePoint" />
            <mxPoint y="421" as="targetPoint" />
            <Array as="points">
              <mxPoint x="500" y="520" />
              <mxPoint x="220" y="520" />
              <mxPoint x="-340" y="520" />
            </Array>
          </mxGeometry>
        </mxCell>
        <mxCell id="xKpivIKKUuxBDInxmXFq-32" value="" style="endArrow=open;endFill=1;endSize=12;html=1;rounded=0;entryX=0.289;entryY=1.029;entryDx=0;entryDy=0;entryPerimeter=0;exitX=0.495;exitY=0.993;exitDx=0;exitDy=0;exitPerimeter=0;" edge="1" parent="1" source="xKpivIKKUuxBDInxmXFq-7" target="xKpivIKKUuxBDInxmXFq-22">
          <mxGeometry width="160" relative="1" as="geometry">
            <mxPoint x="760" y="450" as="sourcePoint" />
            <mxPoint x="-79" y="450" as="targetPoint" />
            <Array as="points">
              <mxPoint x="760" y="539" />
              <mxPoint x="480" y="539" />
              <mxPoint x="-370" y="539" />
            </Array>
          </mxGeometry>
        </mxCell>
        <mxCell id="xKpivIKKUuxBDInxmXFq-33" value="&lt;font style=&quot;color: rgb(255, 0, 0);&quot;&gt;Observer&lt;/font&gt;" style="whiteSpace=wrap;html=1;shape=mxgraph.basic.document;fillColor=none;strokeColor=#FF0000;" vertex="1" parent="1">
          <mxGeometry x="100" y="10" width="100" height="50" as="geometry" />
        </mxCell>
        <mxCell id="xKpivIKKUuxBDInxmXFq-34" value="&lt;font color=&quot;#ff0000&quot;&gt;Subject&lt;/font&gt;" style="whiteSpace=wrap;html=1;shape=mxgraph.basic.document;fillColor=none;strokeColor=#FF0000;" vertex="1" parent="1">
          <mxGeometry x="-385" y="10" width="100" height="50" as="geometry" />
        </mxCell>
        <mxCell id="xKpivIKKUuxBDInxmXFq-35" value="&lt;font color=&quot;#00cc00&quot;&gt;Context&lt;/font&gt;" style="whiteSpace=wrap;html=1;shape=mxgraph.basic.document;fillColor=none;strokeColor=#00CC00;" vertex="1" parent="1">
          <mxGeometry x="-40" y="10" width="100" height="50" as="geometry" />
        </mxCell>
        <mxCell id="xKpivIKKUuxBDInxmXFq-36" value="&lt;font color=&quot;#00cc00&quot;&gt;Strategies&lt;/font&gt;" style="whiteSpace=wrap;html=1;shape=mxgraph.basic.document;fillColor=none;strokeColor=#00CC00;" vertex="1" parent="1">
          <mxGeometry x="570" y="20" width="100" height="50" as="geometry" />
        </mxCell>
        <mxCell id="xKpivIKKUuxBDInxmXFq-39" value="" style="endArrow=none;html=1;strokeColor=#00CC00;bendable=0;rounded=0;endFill=0;endSize=4;startArrow=none;startFill=0;startSize=4;jumpStyle=none;jumpSize=0;targetPerimeterSpacing=15;dashed=1;strokeWidth=1.5;entryX=0.5;entryY=1;entryDx=0;entryDy=0;entryPerimeter=0;" edge="1" parent="1" target="xKpivIKKUuxBDInxmXFq-36">
          <mxGeometry width="50" height="50" relative="1" as="geometry">
            <mxPoint x="620" y="110" as="sourcePoint" />
            <mxPoint x="619.78" y="75" as="targetPoint" />
          </mxGeometry>
        </mxCell>
        <mxCell id="xKpivIKKUuxBDInxmXFq-40" value="" style="endArrow=none;html=1;strokeColor=#00CC00;bendable=0;rounded=0;endFill=0;endSize=4;startArrow=none;startFill=0;startSize=4;jumpStyle=none;jumpSize=0;targetPerimeterSpacing=15;dashed=1;strokeWidth=1.5;entryX=0.5;entryY=1;entryDx=0;entryDy=0;entryPerimeter=0;" edge="1" parent="1">
          <mxGeometry width="50" height="50" relative="1" as="geometry">
            <mxPoint x="10" y="100" as="sourcePoint" />
            <mxPoint x="10.220000000000027" y="60" as="targetPoint" />
          </mxGeometry>
        </mxCell>
        <mxCell id="xKpivIKKUuxBDInxmXFq-41" value="" style="endArrow=none;html=1;strokeColor=#FF0000;bendable=0;rounded=0;endFill=0;endSize=4;startArrow=none;startFill=0;startSize=4;jumpStyle=none;jumpSize=0;targetPerimeterSpacing=15;dashed=1;strokeWidth=1.5;entryX=0.5;entryY=1;entryDx=0;entryDy=0;entryPerimeter=0;" edge="1" parent="1">
          <mxGeometry width="50" height="50" relative="1" as="geometry">
            <mxPoint x="149.8" y="100" as="sourcePoint" />
            <mxPoint x="150.02000000000004" y="60" as="targetPoint" />
          </mxGeometry>
        </mxCell>
        <mxCell id="xKpivIKKUuxBDInxmXFq-42" value="" style="endArrow=none;html=1;strokeColor=#FF0000;bendable=0;rounded=0;endFill=0;endSize=4;startArrow=none;startFill=0;startSize=4;jumpStyle=none;jumpSize=0;targetPerimeterSpacing=15;dashed=1;strokeWidth=1.5;entryX=0.5;entryY=1;entryDx=0;entryDy=0;entryPerimeter=0;" edge="1" parent="1">
          <mxGeometry width="50" height="50" relative="1" as="geometry">
            <mxPoint x="-335.59" y="100" as="sourcePoint" />
            <mxPoint x="-335.36999999999995" y="60" as="targetPoint" />
          </mxGeometry>
        </mxCell>
        <mxCell id="xKpivIKKUuxBDInxmXFq-43" value="+ ViewF" style="swimlane;fontStyle=1;align=center;verticalAlign=top;childLayout=stackLayout;horizontal=1;startSize=26;horizontalStack=0;resizeParent=1;resizeParentMax=0;resizeLast=0;collapsible=1;marginBottom=0;whiteSpace=wrap;html=1;fillColor=none;" vertex="1" parent="1">
          <mxGeometry x="15" y="350" width="120" height="80" as="geometry" />
        </mxCell>
        <mxCell id="xKpivIKKUuxBDInxmXFq-44" value="" style="line;strokeWidth=1;fillColor=none;align=left;verticalAlign=middle;spacingTop=-1;spacingLeft=3;spacingRight=3;rotatable=0;labelPosition=right;points=[];portConstraint=eastwest;strokeColor=inherit;" vertex="1" parent="xKpivIKKUuxBDInxmXFq-43">
          <mxGeometry y="26" width="120" height="8" as="geometry" />
        </mxCell>
        <mxCell id="xKpivIKKUuxBDInxmXFq-45" value="&lt;font style=&quot;color: rgb(255, 0, 0);&quot;&gt;+ updateView()&lt;/font&gt;&lt;div&gt;&lt;font color=&quot;#ff0000&quot;&gt;+ readTemp()&lt;/font&gt;&lt;/div&gt;" style="text;strokeColor=none;fillColor=none;align=left;verticalAlign=top;spacingLeft=4;spacingRight=4;overflow=hidden;rotatable=0;points=[[0,0.5],[1,0.5]];portConstraint=eastwest;whiteSpace=wrap;html=1;" vertex="1" parent="xKpivIKKUuxBDInxmXFq-43">
          <mxGeometry y="34" width="120" height="46" as="geometry" />
        </mxCell>
        <mxCell id="xKpivIKKUuxBDInxmXFq-46" value="+ ViewSlider" style="swimlane;fontStyle=1;align=center;verticalAlign=top;childLayout=stackLayout;horizontal=1;startSize=26;horizontalStack=0;resizeParent=1;resizeParentMax=0;resizeLast=0;collapsible=1;marginBottom=0;whiteSpace=wrap;html=1;fillColor=none;" vertex="1" parent="1">
          <mxGeometry x="190" y="350" width="110" height="80" as="geometry" />
        </mxCell>
        <mxCell id="xKpivIKKUuxBDInxmXFq-47" value="" style="line;strokeWidth=1;fillColor=none;align=left;verticalAlign=middle;spacingTop=-1;spacingLeft=3;spacingRight=3;rotatable=0;labelPosition=right;points=[];portConstraint=eastwest;strokeColor=inherit;" vertex="1" parent="xKpivIKKUuxBDInxmXFq-46">
          <mxGeometry y="26" width="110" height="8" as="geometry" />
        </mxCell>
        <mxCell id="xKpivIKKUuxBDInxmXFq-48" value="&lt;font style=&quot;color: rgb(255, 0, 0);&quot;&gt;+ updateView()&lt;/font&gt;&lt;div&gt;&lt;font color=&quot;#ff0000&quot;&gt;+ readTemp()&lt;/font&gt;&lt;/div&gt;" style="text;strokeColor=none;fillColor=none;align=left;verticalAlign=top;spacingLeft=4;spacingRight=4;overflow=hidden;rotatable=0;points=[[0,0.5],[1,0.5]];portConstraint=eastwest;whiteSpace=wrap;html=1;" vertex="1" parent="xKpivIKKUuxBDInxmXFq-46">
          <mxGeometry y="34" width="110" height="46" as="geometry" />
        </mxCell>
        <mxCell id="xKpivIKKUuxBDInxmXFq-49" value="" style="endArrow=block;endFill=0;endSize=16;html=1;rounded=0;exitX=0.5;exitY=0;exitDx=0;exitDy=0;entryX=0.5;entryY=1;entryDx=0;entryDy=0;" edge="1" parent="1" source="xKpivIKKUuxBDInxmXFq-43" target="xKpivIKKUuxBDInxmXFq-10">
          <mxGeometry width="160" relative="1" as="geometry">
            <mxPoint x="-85" y="360" as="sourcePoint" />
            <mxPoint x="38" y="220" as="targetPoint" />
          </mxGeometry>
        </mxCell>
        <mxCell id="xKpivIKKUuxBDInxmXFq-50" value="" style="endArrow=block;endFill=0;endSize=16;html=1;rounded=0;exitX=0.5;exitY=0;exitDx=0;exitDy=0;entryX=0.75;entryY=1;entryDx=0;entryDy=0;" edge="1" parent="1" source="xKpivIKKUuxBDInxmXFq-46" target="xKpivIKKUuxBDInxmXFq-10">
          <mxGeometry width="160" relative="1" as="geometry">
            <mxPoint x="38" y="360" as="sourcePoint" />
            <mxPoint x="-85" y="220" as="targetPoint" />
          </mxGeometry>
        </mxCell>
        <mxCell id="xKpivIKKUuxBDInxmXFq-51" value="" style="endArrow=open;endFill=1;endSize=12;html=1;rounded=0;strokeColor=#FF0000;" edge="1" parent="1">
          <mxGeometry width="160" relative="1" as="geometry">
            <mxPoint x="80" y="430" as="sourcePoint" />
            <mxPoint x="-290" y="430" as="targetPoint" />
            <Array as="points">
              <mxPoint x="80" y="470" />
              <mxPoint x="-260" y="470" />
              <mxPoint x="-290" y="470" />
            </Array>
          </mxGeometry>
        </mxCell>
      </root>
    </mxGraphModel>
  </diagram>
</mxfile>
